<?xml version="1.0" encoding="UTF-8" standalone="no"?>
<!DOCTYPE svg PUBLIC "-//W3C//DTD SVG 1.1//EN"
 "http://www.w3.org/Graphics/SVG/1.1/DTD/svg11.dtd">
<!-- Generated by graphviz version 2.38.0 (20140413.2041)
 -->
<!-- Title: Graph Pages: 1 -->
<svg width="864pt" height="353pt"
 viewBox="0.00 0.00 864.50 353.00" xmlns="http://www.w3.org/2000/svg" xmlns:xlink="http://www.w3.org/1999/xlink">
<g id="graph0" class="graph" transform="scale(1 1) rotate(0) translate(4 348.997)">
<title>Graph</title>
<polygon fill="white" stroke="none" points="-4,4 -4,-348.997 860.498,-348.997 860.498,4 -4,4"/>
<!-- 0 -->
<g id="node1" class="node"><title>0</title>
<ellipse fill="yellow" stroke="yellow" cx="451" cy="-326.997" rx="18" ry="18"/>
<text text-anchor="middle" x="451" y="-323.297" font-family="Times,serif" font-size="14.00" fill="red">0</text>
</g>
<!-- 1 -->
<g id="node2" class="node"><title>1</title>
<ellipse fill="yellow" stroke="yellow" cx="310" cy="-239.997" rx="18" ry="18"/>
<text text-anchor="middle" x="310" y="-236.297" font-family="Times,serif" font-size="14.00" fill="red">0</text>
</g>
<!-- 0&#45;&gt;1 -->
<g id="edge1" class="edge"><title>0&#45;&gt;1</title>
<path fill="none" stroke="red" d="M435.911,-316.9C411.422,-302.138 362.839,-272.85 333.702,-255.285"/>
<polygon fill="red" stroke="red" points="335.352,-252.193 324.981,-250.028 331.738,-258.188 335.352,-252.193"/>
<text text-anchor="middle" x="407.5" y="-279.797" font-family="Times,serif" font-size="14.00">x0 = 0</text>
</g>
<!-- 2 -->
<g id="node3" class="node"><title>2</title>
<ellipse fill="#b2dfee" stroke="#b2dfee" cx="548" cy="-239.997" rx="18" ry="18"/>
<text text-anchor="middle" x="548" y="-236.297" font-family="Times,serif" font-size="14.00">2</text>
</g>
<!-- 0&#45;&gt;2 -->
<g id="edge2" class="edge"><title>0&#45;&gt;2</title>
<path fill="none" stroke="black" d="M464.082,-314.533C480.281,-300.338 508.07,-275.986 527.204,-259.22"/>
<polygon fill="black" stroke="black" points="529.601,-261.773 534.816,-252.55 524.988,-256.508 529.601,-261.773"/>
<text text-anchor="middle" x="583" y="-279.797" font-family="Times,serif" font-size="14.00">x0 = 1 : on prend l&#39;objet x0</text>
</g>
<!-- 3 -->
<g id="node4" class="node"><title>3</title>
<ellipse fill="#b2dfee" stroke="#b2dfee" cx="154" cy="-166.997" rx="18" ry="18"/>
<text text-anchor="middle" x="154" y="-163.297" font-family="Times,serif" font-size="14.00">0</text>
</g>
<!-- 1&#45;&gt;3 -->
<g id="edge3" class="edge"><title>1&#45;&gt;3</title>
<path fill="none" stroke="black" d="M293.893,-231.666C266.802,-219.336 211.911,-194.353 179.526,-179.614"/>
<polygon fill="black" stroke="black" points="180.805,-176.351 170.253,-175.394 177.905,-182.722 180.805,-176.351"/>
</g>
<!-- 4 -->
<g id="node5" class="node"><title>4</title>
<ellipse fill="yellow" stroke="yellow" cx="310" cy="-166.997" rx="18" ry="18"/>
<text text-anchor="middle" x="310" y="-163.297" font-family="Times,serif" font-size="14.00" fill="red">3</text>
</g>
<!-- 1&#45;&gt;4 -->
<g id="edge4" class="edge"><title>1&#45;&gt;4</title>
<path fill="none" stroke="red" d="M310,-221.809C310,-213.786 310,-204.044 310,-195.066"/>
<polygon fill="red" stroke="red" points="313.5,-195.025 310,-185.025 306.5,-195.025 313.5,-195.025"/>
</g>
<!-- 5 -->
<g id="node6" class="node"><title>5</title>
<ellipse fill="#b2dfee" stroke="#b2dfee" cx="548" cy="-166.997" rx="18" ry="18"/>
<text text-anchor="middle" x="548" y="-163.297" font-family="Times,serif" font-size="14.00">2</text>
</g>
<!-- 2&#45;&gt;5 -->
<g id="edge5" class="edge"><title>2&#45;&gt;5</title>
<path fill="none" stroke="black" d="M548,-221.809C548,-213.786 548,-204.044 548,-195.066"/>
<polygon fill="black" stroke="black" points="551.5,-195.025 548,-185.025 544.5,-195.025 551.5,-195.025"/>
</g>
<!-- 6 -->
<g id="node7" class="node"><title>6</title>
<ellipse fill="#b2dfee" stroke="#b2dfee" cx="693" cy="-166.997" rx="18" ry="18"/>
<text text-anchor="middle" x="693" y="-163.297" font-family="Times,serif" font-size="14.00">5</text>
</g>
<!-- 2&#45;&gt;6 -->
<g id="edge6" class="edge"><title>2&#45;&gt;6</title>
<path fill="none" stroke="black" d="M563.794,-231.263C588.853,-218.993 637.942,-194.956 667.873,-180.3"/>
<polygon fill="black" stroke="black" points="669.784,-183.262 677.226,-175.72 666.706,-176.975 669.784,-183.262"/>
</g>
<!-- 7 -->
<g id="node8" class="node"><title>7</title>
<ellipse fill="#b2dfee" stroke="#b2dfee" cx="72" cy="-93.9965" rx="18" ry="18"/>
<text text-anchor="middle" x="72" y="-90.2965" font-family="Times,serif" font-size="14.00">0</text>
</g>
<!-- 3&#45;&gt;7 -->
<g id="edge7" class="edge"><title>3&#45;&gt;7</title>
<path fill="none" stroke="black" d="M140.825,-154.589C127.914,-143.41 108.033,-126.196 92.9517,-113.138"/>
<polygon fill="black" stroke="black" points="94.993,-110.275 85.142,-106.376 90.4109,-115.567 94.993,-110.275"/>
</g>
<!-- 8 -->
<g id="node9" class="node"><title>8</title>
<ellipse fill="#b2dfee" stroke="#b2dfee" cx="154" cy="-93.9965" rx="18" ry="18"/>
<text text-anchor="middle" x="154" y="-90.2965" font-family="Times,serif" font-size="14.00">4</text>
</g>
<!-- 3&#45;&gt;8 -->
<g id="edge8" class="edge"><title>3&#45;&gt;8</title>
<path fill="none" stroke="black" d="M154,-148.809C154,-140.786 154,-131.044 154,-122.066"/>
<polygon fill="black" stroke="black" points="157.5,-122.025 154,-112.025 150.5,-122.025 157.5,-122.025"/>
</g>
<!-- 9 -->
<g id="node10" class="node"><title>9</title>
<ellipse fill="#b2dfee" stroke="#b2dfee" cx="290" cy="-93.9965" rx="18" ry="18"/>
<text text-anchor="middle" x="290" y="-90.2965" font-family="Times,serif" font-size="14.00">3</text>
</g>
<!-- 4&#45;&gt;9 -->
<g id="edge9" class="edge"><title>4&#45;&gt;9</title>
<path fill="none" stroke="black" d="M305.361,-149.529C303.022,-141.226 300.128,-130.951 297.484,-121.566"/>
<polygon fill="black" stroke="black" points="300.833,-120.544 294.752,-111.868 294.095,-122.442 300.833,-120.544"/>
</g>
<!-- 10 -->
<g id="node11" class="node"><title>10</title>
<ellipse fill="yellow" stroke="yellow" cx="344" cy="-93.9965" rx="18" ry="18"/>
<text text-anchor="middle" x="344" y="-90.2965" font-family="Times,serif" font-size="14.00" fill="red">7</text>
</g>
<!-- 4&#45;&gt;10 -->
<g id="edge10" class="edge"><title>4&#45;&gt;10</title>
<path fill="none" stroke="red" d="M317.546,-150.239C321.816,-141.323 327.252,-129.97 332.085,-119.878"/>
<polygon fill="red" stroke="red" points="335.313,-121.241 336.475,-110.71 329,-118.217 335.313,-121.241"/>
</g>
<!-- 11 -->
<g id="node12" class="node"><title>11</title>
<ellipse fill="#b2dfee" stroke="#b2dfee" cx="508" cy="-93.9965" rx="18" ry="18"/>
<text text-anchor="middle" x="508" y="-90.2965" font-family="Times,serif" font-size="14.00">2</text>
</g>
<!-- 5&#45;&gt;11 -->
<g id="edge11" class="edge"><title>5&#45;&gt;11</title>
<path fill="none" stroke="black" d="M539.517,-150.939C534.267,-141.62 527.41,-129.45 521.434,-118.842"/>
<polygon fill="black" stroke="black" points="524.429,-117.027 516.471,-110.032 518.33,-120.463 524.429,-117.027"/>
</g>
<!-- 12 -->
<g id="node13" class="node"><title>12</title>
<ellipse fill="#b2dfee" stroke="#b2dfee" cx="562" cy="-93.9965" rx="18" ry="18"/>
<text text-anchor="middle" x="562" y="-90.2965" font-family="Times,serif" font-size="14.00">6</text>
</g>
<!-- 5&#45;&gt;12 -->
<g id="edge12" class="edge"><title>5&#45;&gt;12</title>
<path fill="none" stroke="black" d="M551.318,-149.171C552.939,-140.947 554.929,-130.855 556.75,-121.62"/>
<polygon fill="black" stroke="black" points="560.205,-122.19 558.706,-111.702 553.337,-120.836 560.205,-122.19"/>
</g>
<!-- 13 -->
<g id="node14" class="node"><title>13</title>
<ellipse fill="#b2dfee" stroke="#b2dfee" cx="693" cy="-93.9965" rx="18" ry="18"/>
<text text-anchor="middle" x="693" y="-90.2965" font-family="Times,serif" font-size="14.00">5</text>
</g>
<!-- 6&#45;&gt;13 -->
<g id="edge13" class="edge"><title>6&#45;&gt;13</title>
<path fill="none" stroke="black" d="M693,-148.809C693,-140.786 693,-131.044 693,-122.066"/>
<polygon fill="black" stroke="black" points="696.5,-122.025 693,-112.025 689.5,-122.025 696.5,-122.025"/>
</g>
<!-- 14 -->
<g id="node15" class="node"><title>14</title>
<ellipse fill="#b2dfee" stroke="#b2dfee" cx="782" cy="-93.9965" rx="18" ry="18"/>
<text text-anchor="middle" x="782" y="-90.2965" font-family="Times,serif" font-size="14.00">9</text>
</g>
<!-- 6&#45;&gt;14 -->
<g id="edge14" class="edge"><title>6&#45;&gt;14</title>
<path fill="none" stroke="black" d="M706.906,-154.903C721.144,-143.544 743.482,-125.725 760.097,-112.47"/>
<polygon fill="black" stroke="black" points="762.557,-114.985 768.191,-106.012 758.191,-109.513 762.557,-114.985"/>
</g>
<!-- 15 -->
<g id="node16" class="node"><title>15</title>
<ellipse fill="#b2dfee" stroke="#b2dfee" cx="18" cy="-19.4983" rx="18" ry="18"/>
<text text-anchor="middle" x="18" y="-15.7983" font-family="Times,serif" font-size="14.00">0</text>
</g>
<!-- 7&#45;&gt;15 -->
<g id="edge15" class="edge"><title>7&#45;&gt;15</title>
<path fill="none" stroke="black" d="M61.5883,-79.0181C53.8937,-68.6877 43.2645,-54.4174 34.4289,-42.5551"/>
<polygon fill="black" stroke="black" points="37.1603,-40.3628 28.3798,-34.4338 31.5464,-44.5443 37.1603,-40.3628"/>
</g>
<!-- 16 -->
<g id="node17" class="node"><title>16</title>
<ellipse fill="#b2dfee" stroke="#b2dfee" cx="72" cy="-19.4983" rx="18" ry="18"/>
<text text-anchor="middle" x="72" y="-15.7983" font-family="Times,serif" font-size="14.00">6</text>
</g>
<!-- 7&#45;&gt;16 -->
<g id="edge16" class="edge"><title>7&#45;&gt;16</title>
<path fill="none" stroke="black" d="M72,-75.8155C72,-67.4187 72,-57.1137 72,-47.6833"/>
<polygon fill="black" stroke="black" points="75.5001,-47.556 72,-37.556 68.5001,-47.5561 75.5001,-47.556"/>
</g>
<!-- 17 -->
<g id="node18" class="node"><title>17</title>
<ellipse fill="#b2dfee" stroke="#b2dfee" cx="126" cy="-19.4983" rx="18" ry="18"/>
<text text-anchor="middle" x="126" y="-15.7983" font-family="Times,serif" font-size="14.00">4</text>
</g>
<!-- 8&#45;&gt;17 -->
<g id="edge17" class="edge"><title>8&#45;&gt;17</title>
<path fill="none" stroke="black" d="M147.786,-76.9068C144.27,-67.8023 139.792,-56.21 135.813,-45.9052"/>
<polygon fill="black" stroke="black" points="139.065,-44.6105 132.197,-36.543 132.535,-47.1325 139.065,-44.6105"/>
</g>
<!-- 18 -->
<g id="node19" class="node"><title>18</title>
<ellipse fill="#b2dfee" stroke="#b2dfee" cx="181" cy="-19.4983" rx="19.4965" ry="19.4965"/>
<text text-anchor="middle" x="181" y="-15.7983" font-family="Times,serif" font-size="14.00">10</text>
</g>
<!-- 8&#45;&gt;18 -->
<g id="edge18" class="edge"><title>8&#45;&gt;18</title>
<path fill="none" stroke="black" d="M159.992,-76.9068C163.208,-68.2716 167.258,-57.3985 170.941,-47.5084"/>
<polygon fill="black" stroke="black" points="174.247,-48.6582 174.458,-38.0654 167.688,-46.2151 174.247,-48.6582"/>
</g>
<!-- 19 -->
<g id="node20" class="node"><title>19</title>
<ellipse fill="#b2dfee" stroke="#b2dfee" cx="236" cy="-19.4983" rx="18" ry="18"/>
<text text-anchor="middle" x="236" y="-15.7983" font-family="Times,serif" font-size="14.00">3</text>
</g>
<!-- 9&#45;&gt;19 -->
<g id="edge19" class="edge"><title>9&#45;&gt;19</title>
<path fill="none" stroke="black" d="M279.588,-79.0181C271.894,-68.6877 261.265,-54.4174 252.429,-42.5551"/>
<polygon fill="black" stroke="black" points="255.16,-40.3628 246.38,-34.4338 249.546,-44.5443 255.16,-40.3628"/>
</g>
<!-- 20 -->
<g id="node21" class="node"><title>20</title>
<ellipse fill="#b2dfee" stroke="#b2dfee" cx="290" cy="-19.4983" rx="18" ry="18"/>
<text text-anchor="middle" x="290" y="-15.7983" font-family="Times,serif" font-size="14.00">9</text>
</g>
<!-- 9&#45;&gt;20 -->
<g id="edge20" class="edge"><title>9&#45;&gt;20</title>
<path fill="none" stroke="black" d="M290,-75.8155C290,-67.4187 290,-57.1137 290,-47.6833"/>
<polygon fill="black" stroke="black" points="293.5,-47.556 290,-37.556 286.5,-47.5561 293.5,-47.556"/>
</g>
<!-- 21 -->
<g id="node22" class="node"><title>21</title>
<ellipse fill="#b2dfee" stroke="#b2dfee" cx="344" cy="-19.4983" rx="18" ry="18"/>
<text text-anchor="middle" x="344" y="-15.7983" font-family="Times,serif" font-size="14.00">7</text>
</g>
<!-- 10&#45;&gt;21 -->
<g id="edge21" class="edge"><title>10&#45;&gt;21</title>
<path fill="none" stroke="black" d="M344,-75.8155C344,-67.4187 344,-57.1137 344,-47.6833"/>
<polygon fill="black" stroke="black" points="347.5,-47.556 344,-37.556 340.5,-47.5561 347.5,-47.556"/>
</g>
<!-- 22 -->
<g id="node23" class="node"><title>22</title>
<ellipse fill="#b2dfee" stroke="#b2dfee" cx="399" cy="-19.4983" rx="19.4965" ry="19.4965"/>
<text text-anchor="middle" x="399" y="-15.7983" font-family="Times,serif" font-size="14.00">13</text>
</g>
<!-- 10&#45;&gt;22 -->
<g id="edge22" class="edge"><title>10&#45;&gt;22</title>
<path fill="none" stroke="black" d="M354.605,-79.0181C362.241,-68.9526 372.714,-55.1466 381.571,-43.4722"/>
<polygon fill="black" stroke="black" points="384.415,-45.5143 387.671,-35.4321 378.838,-41.2835 384.415,-45.5143"/>
</g>
<!-- 23 -->
<g id="node24" class="node"><title>23</title>
<ellipse fill="#b2dfee" stroke="#b2dfee" cx="454" cy="-19.4983" rx="18" ry="18"/>
<text text-anchor="middle" x="454" y="-15.7983" font-family="Times,serif" font-size="14.00">2</text>
</g>
<!-- 11&#45;&gt;23 -->
<g id="edge23" class="edge"><title>11&#45;&gt;23</title>
<path fill="none" stroke="black" d="M497.588,-79.0181C489.894,-68.6877 479.265,-54.4174 470.429,-42.5551"/>
<polygon fill="black" stroke="black" points="473.16,-40.3628 464.38,-34.4338 467.546,-44.5443 473.16,-40.3628"/>
</g>
<!-- 24 -->
<g id="node25" class="node"><title>24</title>
<ellipse fill="#b2dfee" stroke="#b2dfee" cx="508" cy="-19.4983" rx="18" ry="18"/>
<text text-anchor="middle" x="508" y="-15.7983" font-family="Times,serif" font-size="14.00">8</text>
</g>
<!-- 11&#45;&gt;24 -->
<g id="edge24" class="edge"><title>11&#45;&gt;24</title>
<path fill="none" stroke="black" d="M508,-75.8155C508,-67.4187 508,-57.1137 508,-47.6833"/>
<polygon fill="black" stroke="black" points="511.5,-47.556 508,-37.556 504.5,-47.5561 511.5,-47.556"/>
</g>
<!-- 25 -->
<g id="node26" class="node"><title>25</title>
<ellipse fill="#b2dfee" stroke="#b2dfee" cx="562" cy="-19.4983" rx="18" ry="18"/>
<text text-anchor="middle" x="562" y="-15.7983" font-family="Times,serif" font-size="14.00">6</text>
</g>
<!-- 12&#45;&gt;25 -->
<g id="edge25" class="edge"><title>12&#45;&gt;25</title>
<path fill="none" stroke="black" d="M562,-75.8155C562,-67.4187 562,-57.1137 562,-47.6833"/>
<polygon fill="black" stroke="black" points="565.5,-47.556 562,-37.556 558.5,-47.5561 565.5,-47.556"/>
</g>
<!-- 26 -->
<g id="node27" class="node"><title>26</title>
<ellipse fill="#b2dfee" stroke="#b2dfee" cx="617" cy="-19.4983" rx="19.4965" ry="19.4965"/>
<text text-anchor="middle" x="617" y="-15.7983" font-family="Times,serif" font-size="14.00">12</text>
</g>
<!-- 12&#45;&gt;26 -->
<g id="edge26" class="edge"><title>12&#45;&gt;26</title>
<path fill="none" stroke="black" d="M572.605,-79.0181C580.241,-68.9526 590.714,-55.1466 599.571,-43.4722"/>
<polygon fill="black" stroke="black" points="602.415,-45.5143 605.671,-35.4321 596.838,-41.2835 602.415,-45.5143"/>
</g>
<!-- 27 -->
<g id="node28" class="node"><title>27</title>
<ellipse fill="#b2dfee" stroke="#b2dfee" cx="672" cy="-19.4983" rx="18" ry="18"/>
<text text-anchor="middle" x="672" y="-15.7983" font-family="Times,serif" font-size="14.00">5</text>
</g>
<!-- 13&#45;&gt;27 -->
<g id="edge27" class="edge"><title>13&#45;&gt;27</title>
<path fill="none" stroke="black" d="M688.235,-76.5456C685.684,-67.7397 682.482,-56.6852 679.597,-46.726"/>
<polygon fill="black" stroke="black" points="682.89,-45.5155 676.746,-36.8841 676.167,-47.4631 682.89,-45.5155"/>
</g>
<!-- 28 -->
<g id="node29" class="node"><title>28</title>
<ellipse fill="#b2dfee" stroke="#b2dfee" cx="727" cy="-19.4983" rx="19.4965" ry="19.4965"/>
<text text-anchor="middle" x="727" y="-15.7983" font-family="Times,serif" font-size="14.00">11</text>
</g>
<!-- 13&#45;&gt;28 -->
<g id="edge28" class="edge"><title>13&#45;&gt;28</title>
<path fill="none" stroke="black" d="M700.377,-77.2655C704.551,-68.3658 709.879,-57.0057 714.67,-46.7896"/>
<polygon fill="black" stroke="black" points="717.967,-48.0029 719.044,-37.463 711.629,-45.0307 717.967,-48.0029"/>
</g>
<!-- 29 -->
<g id="node30" class="node"><title>29</title>
<ellipse fill="#b2dfee" stroke="#b2dfee" cx="782" cy="-19.4983" rx="18" ry="18"/>
<text text-anchor="middle" x="782" y="-15.7983" font-family="Times,serif" font-size="14.00">9</text>
</g>
<!-- 14&#45;&gt;29 -->
<g id="edge29" class="edge"><title>14&#45;&gt;29</title>
<path fill="none" stroke="black" d="M782,-75.8155C782,-67.4187 782,-57.1137 782,-47.6833"/>
<polygon fill="black" stroke="black" points="785.5,-47.556 782,-37.556 778.5,-47.5561 785.5,-47.556"/>
</g>
<!-- 30 -->
<g id="node31" class="node"><title>30</title>
<ellipse fill="#b2dfee" stroke="#b2dfee" cx="837" cy="-19.4983" rx="19.4965" ry="19.4965"/>
<text text-anchor="middle" x="837" y="-15.7983" font-family="Times,serif" font-size="14.00">15</text>
</g>
<!-- 14&#45;&gt;30 -->
<g id="edge30" class="edge"><title>14&#45;&gt;30</title>
<path fill="none" stroke="black" d="M792.605,-79.0181C800.241,-68.9526 810.714,-55.1466 819.571,-43.4722"/>
<polygon fill="black" stroke="black" points="822.415,-45.5143 825.671,-35.4321 816.838,-41.2835 822.415,-45.5143"/>
</g>
</g>
</svg>
