<?xml version="1.0" encoding="UTF-8" standalone="no"?>
<!DOCTYPE svg PUBLIC "-//W3C//DTD SVG 1.1//EN"
 "http://www.w3.org/Graphics/SVG/1.1/DTD/svg11.dtd">
<!-- Generated by graphviz version 2.38.0 (20140413.2041)
 -->
<!-- Title: Graph Pages: 1 -->
<svg width="1142pt" height="332pt"
 viewBox="0.00 0.00 1142.00 332.00" xmlns="http://www.w3.org/2000/svg" xmlns:xlink="http://www.w3.org/1999/xlink">
<g id="graph0" class="graph" transform="scale(1 1) rotate(0) translate(4 328)">
<title>Graph</title>
<polygon fill="white" stroke="none" points="-4,4 -4,-328 1138,-328 1138,4 -4,4"/>
<!-- 0 -->
<g id="node1" class="node"><title>0</title>
<ellipse fill="none" stroke="black" cx="567" cy="-306" rx="27" ry="18"/>
<text text-anchor="middle" x="567" y="-302.3" font-family="Times,serif" font-size="14.00">0</text>
</g>
<!-- 1 -->
<g id="node2" class="node"><title>1</title>
<ellipse fill="none" stroke="black" cx="423" cy="-234" rx="27" ry="18"/>
<text text-anchor="middle" x="423" y="-230.3" font-family="Times,serif" font-size="14.00">0</text>
</g>
<!-- 0&#45;&gt;1 -->
<g id="edge1" class="edge"><title>0&#45;&gt;1</title>
<path fill="none" stroke="black" d="M545.752,-294.671C521.398,-282.832 481.281,-263.331 453.572,-249.862"/>
<polygon fill="black" stroke="black" points="454.859,-246.595 444.335,-245.371 451.798,-252.891 454.859,-246.595"/>
</g>
<!-- 2 -->
<g id="node3" class="node"><title>2</title>
<ellipse fill="none" stroke="black" cx="711" cy="-234" rx="27" ry="18"/>
<text text-anchor="middle" x="711" y="-230.3" font-family="Times,serif" font-size="14.00">2</text>
</g>
<!-- 0&#45;&gt;2 -->
<g id="edge2" class="edge"><title>0&#45;&gt;2</title>
<path fill="none" stroke="black" d="M588.248,-294.671C612.602,-282.832 652.719,-263.331 680.428,-249.862"/>
<polygon fill="black" stroke="black" points="682.202,-252.891 689.665,-245.371 679.141,-246.595 682.202,-252.891"/>
</g>
<!-- 3 -->
<g id="node4" class="node"><title>3</title>
<ellipse fill="none" stroke="black" cx="207" cy="-162" rx="27" ry="18"/>
<text text-anchor="middle" x="207" y="-158.3" font-family="Times,serif" font-size="14.00">0</text>
</g>
<!-- 1&#45;&gt;3 -->
<g id="edge3" class="edge"><title>1&#45;&gt;3</title>
<path fill="none" stroke="black" d="M399.059,-225.241C360.438,-212.725 284.285,-188.046 240.363,-173.812"/>
<polygon fill="black" stroke="black" points="241.311,-170.44 230.719,-170.687 239.153,-177.099 241.311,-170.44"/>
</g>
<!-- 4 -->
<g id="node5" class="node"><title>4</title>
<ellipse fill="none" stroke="black" cx="423" cy="-162" rx="27" ry="18"/>
<text text-anchor="middle" x="423" y="-158.3" font-family="Times,serif" font-size="14.00">3</text>
</g>
<!-- 1&#45;&gt;4 -->
<g id="edge4" class="edge"><title>1&#45;&gt;4</title>
<path fill="none" stroke="black" d="M423,-215.697C423,-207.983 423,-198.712 423,-190.112"/>
<polygon fill="black" stroke="black" points="426.5,-190.104 423,-180.104 419.5,-190.104 426.5,-190.104"/>
</g>
<!-- 5 -->
<g id="node6" class="node"><title>5</title>
<ellipse fill="none" stroke="black" cx="711" cy="-162" rx="27" ry="18"/>
<text text-anchor="middle" x="711" y="-158.3" font-family="Times,serif" font-size="14.00">2</text>
</g>
<!-- 2&#45;&gt;5 -->
<g id="edge5" class="edge"><title>2&#45;&gt;5</title>
<path fill="none" stroke="black" d="M711,-215.697C711,-207.983 711,-198.712 711,-190.112"/>
<polygon fill="black" stroke="black" points="714.5,-190.104 711,-180.104 707.5,-190.104 714.5,-190.104"/>
</g>
<!-- 6 -->
<g id="node7" class="node"><title>6</title>
<ellipse fill="none" stroke="black" cx="927" cy="-162" rx="27" ry="18"/>
<text text-anchor="middle" x="927" y="-158.3" font-family="Times,serif" font-size="14.00">5</text>
</g>
<!-- 2&#45;&gt;6 -->
<g id="edge6" class="edge"><title>2&#45;&gt;6</title>
<path fill="none" stroke="black" d="M734.941,-225.241C773.562,-212.725 849.715,-188.046 893.637,-173.812"/>
<polygon fill="black" stroke="black" points="894.847,-177.099 903.281,-170.687 892.689,-170.44 894.847,-177.099"/>
</g>
<!-- 7 -->
<g id="node8" class="node"><title>7</title>
<ellipse fill="none" stroke="black" cx="99" cy="-90" rx="27" ry="18"/>
<text text-anchor="middle" x="99" y="-86.3" font-family="Times,serif" font-size="14.00">0</text>
</g>
<!-- 3&#45;&gt;7 -->
<g id="edge7" class="edge"><title>3&#45;&gt;7</title>
<path fill="none" stroke="black" d="M188.188,-148.807C170.998,-137.665 145.382,-121.062 126.007,-108.504"/>
<polygon fill="black" stroke="black" points="127.892,-105.555 117.597,-103.053 124.084,-111.429 127.892,-105.555"/>
</g>
<!-- 8 -->
<g id="node9" class="node"><title>8</title>
<ellipse fill="none" stroke="black" cx="207" cy="-90" rx="27" ry="18"/>
<text text-anchor="middle" x="207" y="-86.3" font-family="Times,serif" font-size="14.00">4</text>
</g>
<!-- 3&#45;&gt;8 -->
<g id="edge8" class="edge"><title>3&#45;&gt;8</title>
<path fill="none" stroke="black" d="M207,-143.697C207,-135.983 207,-126.712 207,-118.112"/>
<polygon fill="black" stroke="black" points="210.5,-118.104 207,-108.104 203.5,-118.104 210.5,-118.104"/>
</g>
<!-- 9 -->
<g id="node10" class="node"><title>9</title>
<ellipse fill="none" stroke="black" cx="387" cy="-90" rx="27" ry="18"/>
<text text-anchor="middle" x="387" y="-86.3" font-family="Times,serif" font-size="14.00">3</text>
</g>
<!-- 4&#45;&gt;9 -->
<g id="edge9" class="edge"><title>4&#45;&gt;9</title>
<path fill="none" stroke="black" d="M414.65,-144.765C410.288,-136.283 404.853,-125.714 399.959,-116.197"/>
<polygon fill="black" stroke="black" points="402.99,-114.439 395.304,-107.147 396.765,-117.641 402.99,-114.439"/>
</g>
<!-- 10 -->
<g id="node11" class="node"><title>10</title>
<ellipse fill="none" stroke="black" cx="459" cy="-90" rx="27" ry="18"/>
<text text-anchor="middle" x="459" y="-86.3" font-family="Times,serif" font-size="14.00">7</text>
</g>
<!-- 4&#45;&gt;10 -->
<g id="edge10" class="edge"><title>4&#45;&gt;10</title>
<path fill="none" stroke="black" d="M431.35,-144.765C435.712,-136.283 441.147,-125.714 446.041,-116.197"/>
<polygon fill="black" stroke="black" points="449.235,-117.641 450.696,-107.147 443.01,-114.439 449.235,-117.641"/>
</g>
<!-- 11 -->
<g id="node12" class="node"><title>11</title>
<ellipse fill="none" stroke="black" cx="675" cy="-90" rx="27" ry="18"/>
<text text-anchor="middle" x="675" y="-86.3" font-family="Times,serif" font-size="14.00">2</text>
</g>
<!-- 5&#45;&gt;11 -->
<g id="edge11" class="edge"><title>5&#45;&gt;11</title>
<path fill="none" stroke="black" d="M702.65,-144.765C698.288,-136.283 692.853,-125.714 687.959,-116.197"/>
<polygon fill="black" stroke="black" points="690.99,-114.439 683.304,-107.147 684.765,-117.641 690.99,-114.439"/>
</g>
<!-- 12 -->
<g id="node13" class="node"><title>12</title>
<ellipse fill="none" stroke="black" cx="747" cy="-90" rx="27" ry="18"/>
<text text-anchor="middle" x="747" y="-86.3" font-family="Times,serif" font-size="14.00">6</text>
</g>
<!-- 5&#45;&gt;12 -->
<g id="edge12" class="edge"><title>5&#45;&gt;12</title>
<path fill="none" stroke="black" d="M719.35,-144.765C723.712,-136.283 729.147,-125.714 734.041,-116.197"/>
<polygon fill="black" stroke="black" points="737.235,-117.641 738.696,-107.147 731.01,-114.439 737.235,-117.641"/>
</g>
<!-- 13 -->
<g id="node14" class="node"><title>13</title>
<ellipse fill="none" stroke="black" cx="927" cy="-90" rx="27" ry="18"/>
<text text-anchor="middle" x="927" y="-86.3" font-family="Times,serif" font-size="14.00">5</text>
</g>
<!-- 6&#45;&gt;13 -->
<g id="edge13" class="edge"><title>6&#45;&gt;13</title>
<path fill="none" stroke="black" d="M927,-143.697C927,-135.983 927,-126.712 927,-118.112"/>
<polygon fill="black" stroke="black" points="930.5,-118.104 927,-108.104 923.5,-118.104 930.5,-118.104"/>
</g>
<!-- 14 -->
<g id="node15" class="node"><title>14</title>
<ellipse fill="none" stroke="black" cx="1035" cy="-90" rx="27" ry="18"/>
<text text-anchor="middle" x="1035" y="-86.3" font-family="Times,serif" font-size="14.00">9</text>
</g>
<!-- 6&#45;&gt;14 -->
<g id="edge14" class="edge"><title>6&#45;&gt;14</title>
<path fill="none" stroke="black" d="M945.812,-148.807C963.002,-137.665 988.618,-121.062 1007.99,-108.504"/>
<polygon fill="black" stroke="black" points="1009.92,-111.429 1016.4,-103.053 1006.11,-105.555 1009.92,-111.429"/>
</g>
<!-- 15 -->
<g id="node16" class="node"><title>15</title>
<ellipse fill="none" stroke="black" cx="27" cy="-18" rx="27" ry="18"/>
<text text-anchor="middle" x="27" y="-14.3" font-family="Times,serif" font-size="14.00">0</text>
</g>
<!-- 7&#45;&gt;15 -->
<g id="edge15" class="edge"><title>7&#45;&gt;15</title>
<path fill="none" stroke="black" d="M84.4297,-74.8345C74.2501,-64.9376 60.4761,-51.5462 48.9694,-40.3591"/>
<polygon fill="black" stroke="black" points="51.4055,-37.8461 41.7957,-33.3847 46.5259,-42.865 51.4055,-37.8461"/>
</g>
<!-- 16 -->
<g id="node17" class="node"><title>16</title>
<ellipse fill="none" stroke="black" cx="99" cy="-18" rx="27" ry="18"/>
<text text-anchor="middle" x="99" y="-14.3" font-family="Times,serif" font-size="14.00">6</text>
</g>
<!-- 7&#45;&gt;16 -->
<g id="edge16" class="edge"><title>7&#45;&gt;16</title>
<path fill="none" stroke="black" d="M99,-71.6966C99,-63.9827 99,-54.7125 99,-46.1124"/>
<polygon fill="black" stroke="black" points="102.5,-46.1043 99,-36.1043 95.5001,-46.1044 102.5,-46.1043"/>
</g>
<!-- 17 -->
<g id="node18" class="node"><title>17</title>
<ellipse fill="none" stroke="black" cx="171" cy="-18" rx="27" ry="18"/>
<text text-anchor="middle" x="171" y="-14.3" font-family="Times,serif" font-size="14.00">4</text>
</g>
<!-- 8&#45;&gt;17 -->
<g id="edge17" class="edge"><title>8&#45;&gt;17</title>
<path fill="none" stroke="black" d="M198.65,-72.7646C194.288,-64.2831 188.853,-53.7144 183.959,-44.1974"/>
<polygon fill="black" stroke="black" points="186.99,-42.4395 179.304,-35.1473 180.765,-45.6409 186.99,-42.4395"/>
</g>
<!-- 18 -->
<g id="node19" class="node"><title>18</title>
<ellipse fill="none" stroke="black" cx="243" cy="-18" rx="27" ry="18"/>
<text text-anchor="middle" x="243" y="-14.3" font-family="Times,serif" font-size="14.00">10</text>
</g>
<!-- 8&#45;&gt;18 -->
<g id="edge18" class="edge"><title>8&#45;&gt;18</title>
<path fill="none" stroke="black" d="M215.35,-72.7646C219.712,-64.2831 225.147,-53.7144 230.041,-44.1974"/>
<polygon fill="black" stroke="black" points="233.235,-45.6409 234.696,-35.1473 227.01,-42.4395 233.235,-45.6409"/>
</g>
<!-- 19 -->
<g id="node20" class="node"><title>19</title>
<ellipse fill="none" stroke="black" cx="315" cy="-18" rx="27" ry="18"/>
<text text-anchor="middle" x="315" y="-14.3" font-family="Times,serif" font-size="14.00">3</text>
</g>
<!-- 9&#45;&gt;19 -->
<g id="edge19" class="edge"><title>9&#45;&gt;19</title>
<path fill="none" stroke="black" d="M372.43,-74.8345C362.25,-64.9376 348.476,-51.5462 336.969,-40.3591"/>
<polygon fill="black" stroke="black" points="339.405,-37.8461 329.796,-33.3847 334.526,-42.865 339.405,-37.8461"/>
</g>
<!-- 20 -->
<g id="node21" class="node"><title>20</title>
<ellipse fill="none" stroke="black" cx="387" cy="-18" rx="27" ry="18"/>
<text text-anchor="middle" x="387" y="-14.3" font-family="Times,serif" font-size="14.00">9</text>
</g>
<!-- 9&#45;&gt;20 -->
<g id="edge20" class="edge"><title>9&#45;&gt;20</title>
<path fill="none" stroke="black" d="M387,-71.6966C387,-63.9827 387,-54.7125 387,-46.1124"/>
<polygon fill="black" stroke="black" points="390.5,-46.1043 387,-36.1043 383.5,-46.1044 390.5,-46.1043"/>
</g>
<!-- 21 -->
<g id="node22" class="node"><title>21</title>
<ellipse fill="none" stroke="black" cx="459" cy="-18" rx="27" ry="18"/>
<text text-anchor="middle" x="459" y="-14.3" font-family="Times,serif" font-size="14.00">7</text>
</g>
<!-- 10&#45;&gt;21 -->
<g id="edge21" class="edge"><title>10&#45;&gt;21</title>
<path fill="none" stroke="black" d="M459,-71.6966C459,-63.9827 459,-54.7125 459,-46.1124"/>
<polygon fill="black" stroke="black" points="462.5,-46.1043 459,-36.1043 455.5,-46.1044 462.5,-46.1043"/>
</g>
<!-- 22 -->
<g id="node23" class="node"><title>22</title>
<ellipse fill="none" stroke="black" cx="531" cy="-18" rx="27" ry="18"/>
<text text-anchor="middle" x="531" y="-14.3" font-family="Times,serif" font-size="14.00">13</text>
</g>
<!-- 10&#45;&gt;22 -->
<g id="edge22" class="edge"><title>10&#45;&gt;22</title>
<path fill="none" stroke="black" d="M473.57,-74.8345C483.75,-64.9376 497.524,-51.5462 509.031,-40.3591"/>
<polygon fill="black" stroke="black" points="511.474,-42.865 516.204,-33.3847 506.595,-37.8461 511.474,-42.865"/>
</g>
<!-- 23 -->
<g id="node24" class="node"><title>23</title>
<ellipse fill="none" stroke="black" cx="603" cy="-18" rx="27" ry="18"/>
<text text-anchor="middle" x="603" y="-14.3" font-family="Times,serif" font-size="14.00">2</text>
</g>
<!-- 11&#45;&gt;23 -->
<g id="edge23" class="edge"><title>11&#45;&gt;23</title>
<path fill="none" stroke="black" d="M660.43,-74.8345C650.25,-64.9376 636.476,-51.5462 624.969,-40.3591"/>
<polygon fill="black" stroke="black" points="627.405,-37.8461 617.796,-33.3847 622.526,-42.865 627.405,-37.8461"/>
</g>
<!-- 24 -->
<g id="node25" class="node"><title>24</title>
<ellipse fill="none" stroke="black" cx="675" cy="-18" rx="27" ry="18"/>
<text text-anchor="middle" x="675" y="-14.3" font-family="Times,serif" font-size="14.00">8</text>
</g>
<!-- 11&#45;&gt;24 -->
<g id="edge24" class="edge"><title>11&#45;&gt;24</title>
<path fill="none" stroke="black" d="M675,-71.6966C675,-63.9827 675,-54.7125 675,-46.1124"/>
<polygon fill="black" stroke="black" points="678.5,-46.1043 675,-36.1043 671.5,-46.1044 678.5,-46.1043"/>
</g>
<!-- 25 -->
<g id="node26" class="node"><title>25</title>
<ellipse fill="none" stroke="black" cx="747" cy="-18" rx="27" ry="18"/>
<text text-anchor="middle" x="747" y="-14.3" font-family="Times,serif" font-size="14.00">6</text>
</g>
<!-- 12&#45;&gt;25 -->
<g id="edge25" class="edge"><title>12&#45;&gt;25</title>
<path fill="none" stroke="black" d="M747,-71.6966C747,-63.9827 747,-54.7125 747,-46.1124"/>
<polygon fill="black" stroke="black" points="750.5,-46.1043 747,-36.1043 743.5,-46.1044 750.5,-46.1043"/>
</g>
<!-- 26 -->
<g id="node27" class="node"><title>26</title>
<ellipse fill="none" stroke="black" cx="819" cy="-18" rx="27" ry="18"/>
<text text-anchor="middle" x="819" y="-14.3" font-family="Times,serif" font-size="14.00">12</text>
</g>
<!-- 12&#45;&gt;26 -->
<g id="edge26" class="edge"><title>12&#45;&gt;26</title>
<path fill="none" stroke="black" d="M761.57,-74.8345C771.75,-64.9376 785.524,-51.5462 797.031,-40.3591"/>
<polygon fill="black" stroke="black" points="799.474,-42.865 804.204,-33.3847 794.595,-37.8461 799.474,-42.865"/>
</g>
<!-- 27 -->
<g id="node28" class="node"><title>27</title>
<ellipse fill="none" stroke="black" cx="891" cy="-18" rx="27" ry="18"/>
<text text-anchor="middle" x="891" y="-14.3" font-family="Times,serif" font-size="14.00">5</text>
</g>
<!-- 13&#45;&gt;27 -->
<g id="edge27" class="edge"><title>13&#45;&gt;27</title>
<path fill="none" stroke="black" d="M918.65,-72.7646C914.288,-64.2831 908.853,-53.7144 903.959,-44.1974"/>
<polygon fill="black" stroke="black" points="906.99,-42.4395 899.304,-35.1473 900.765,-45.6409 906.99,-42.4395"/>
</g>
<!-- 28 -->
<g id="node29" class="node"><title>28</title>
<ellipse fill="none" stroke="black" cx="963" cy="-18" rx="27" ry="18"/>
<text text-anchor="middle" x="963" y="-14.3" font-family="Times,serif" font-size="14.00">11</text>
</g>
<!-- 13&#45;&gt;28 -->
<g id="edge28" class="edge"><title>13&#45;&gt;28</title>
<path fill="none" stroke="black" d="M935.35,-72.7646C939.712,-64.2831 945.147,-53.7144 950.041,-44.1974"/>
<polygon fill="black" stroke="black" points="953.235,-45.6409 954.696,-35.1473 947.01,-42.4395 953.235,-45.6409"/>
</g>
<!-- 29 -->
<g id="node30" class="node"><title>29</title>
<ellipse fill="none" stroke="black" cx="1035" cy="-18" rx="27" ry="18"/>
<text text-anchor="middle" x="1035" y="-14.3" font-family="Times,serif" font-size="14.00">9</text>
</g>
<!-- 14&#45;&gt;29 -->
<g id="edge29" class="edge"><title>14&#45;&gt;29</title>
<path fill="none" stroke="black" d="M1035,-71.6966C1035,-63.9827 1035,-54.7125 1035,-46.1124"/>
<polygon fill="black" stroke="black" points="1038.5,-46.1043 1035,-36.1043 1031.5,-46.1044 1038.5,-46.1043"/>
</g>
<!-- 30 -->
<g id="node31" class="node"><title>30</title>
<ellipse fill="none" stroke="black" cx="1107" cy="-18" rx="27" ry="18"/>
<text text-anchor="middle" x="1107" y="-14.3" font-family="Times,serif" font-size="14.00">15</text>
</g>
<!-- 14&#45;&gt;30 -->
<g id="edge30" class="edge"><title>14&#45;&gt;30</title>
<path fill="none" stroke="black" d="M1049.57,-74.8345C1059.75,-64.9376 1073.52,-51.5462 1085.03,-40.3591"/>
<polygon fill="black" stroke="black" points="1087.47,-42.865 1092.2,-33.3847 1082.59,-37.8461 1087.47,-42.865"/>
</g>
</g>
</svg>
